<?xml version="1.0" encoding="utf-8"?>
<!-- Generator: Adobe Illustrator 18.1.1, SVG Export Plug-In . SVG Version: 6.00 Build 0)  -->
<svg version="1.1" id="layer_stack" xmlns="http://www.w3.org/2000/svg" xmlns:xlink="http://www.w3.org/1999/xlink" x="0px"
	 y="0px" viewBox="0 0 331.7 301.4" enable-background="new 0 0 331.7 301.4" xml:space="preserve">
<g>
	<path fill="#8DCD9F" stroke="#333333" stroke-width="10" stroke-miterlimit="10" d="M160.1,66.8L9.3,172.1c-5.7,4-5.7,12.4,0,16.4
		l150.9,106c3.5,2.4,8.1,2.4,11.5,0l150.9-106c5.7-4,5.7-12.4,0-16.4L171.6,66.8C168.1,64.4,163.6,64.4,160.1,66.8z"/>
	<path fill="#65C07E" stroke="#333333" stroke-width="10" stroke-miterlimit="10" d="M160.1,36.8L9.3,142.1c-5.7,4-5.7,12.4,0,16.4
		l150.9,106c3.5,2.4,8.1,2.4,11.5,0l150.9-106c5.7-4,5.7-12.4,0-16.4L171.6,36.8C168.1,34.4,163.6,34.4,160.1,36.8z"/>
	<g>
		<path fill="#36B561" d="M160.1,6.8L9.3,112.1c-5.7,4-5.7,12.4,0,16.4l150.9,106c3.5,2.4,8.1,2.4,11.5,0l150.9-106
			c5.7-4,5.7-12.4,0-16.4L171.6,6.8C168.1,4.4,163.6,4.4,160.1,6.8z"/>
	</g>
</g>
<polygon display="none" fill="#ED1C24" points="58.8,83.7 111.7,120.7 59.1,157.5 5,119.4 "/>
<polygon display="none" fill="#ED1C24" points="165.9,82.7 111.7,120.7 165.9,158.6 220.1,120.7 "/>
<polygon display="none" fill="#ED1C24" points="166.1,82.7 113.2,45.7 166.9,7.4 220.3,44.8 "/>
<g display="none">
	<polygon display="inline" fill="#1D5B30" points="220.1,45.1 165.9,83 220.1,121 274.3,83 	"/>
	<polygon display="inline" fill="#1D5B30" points="111.7,120.7 58.8,83.7 112.4,45.3 165.9,82.7 	"/>
	<polygon display="inline" fill="#1D5B30" points="111.7,120.7 165.9,158.6 113.2,195.5 59.1,157.5 	"/>
	<polygon display="inline" fill="#1D5B30" points="220.1,120.7 165.9,158.6 218.5,195.5 272.6,157.5 	"/>
</g>
<polygon display="none" fill="#ED1C24" points="274.3,83.2 220.1,121.1 272.7,158 326.8,119.9 "/>
<polygon display="none" fill="#ED1C24" points="165.9,158.6 218.5,195.5 165.9,234.5 113.2,195.5 "/>
<g display="none">
	<polygon display="inline" fill="none" stroke="#333333" stroke-miterlimit="10" points="3.2,120.7 165.9,6.8 328.5,120.7 
		165.9,234.5 	"/>
	<polyline display="inline" fill="none" stroke="#333333" stroke-miterlimit="10" points="220.1,120.7 274.3,82.7 111.7,196.6 	"/>
	<line display="inline" fill="none" stroke="#333333" stroke-miterlimit="10" x1="57.4" y1="158.6" x2="220.1" y2="44.8"/>
	<line display="inline" fill="none" stroke="#333333" stroke-miterlimit="10" x1="274.3" y1="158.6" x2="111.7" y2="44.8"/>
	<line display="inline" fill="none" stroke="#333333" stroke-miterlimit="10" x1="57.4" y1="82.7" x2="220.1" y2="196.6"/>
</g>
<g>
	<polygon fill="#1D5B30" points="84.5,120.7 125.2,92.2 85.9,64.7 45.2,93.1 	"/>
	<polygon fill="#1D5B30" points="165.9,63.8 206.5,35.3 167.2,7.8 126.5,36.2 	"/>
	<polygon fill="#1D5B30" points="125.2,149.1 165.9,120.7 206.5,149.1 165.9,177.6 	"/>
	<polygon fill="#1D5B30" points="125.2,92.2 165.9,63.8 206.5,92.2 165.9,120.7 	"/>
	<polygon fill="#1D5B30" points="43.9,149.1 84.5,120.7 125.2,149.1 84.5,177.6 	"/>
	<polygon fill="#1D5B30" points="125.2,206.1 165.9,177.6 206.5,206.1 165.9,234.5 	"/>
	<polygon fill="#1D5B30" points="206.5,92.1 247.2,63.7 287.8,92.1 247.2,120.6 	"/>
	<polygon fill="#1D5B30" points="206.5,149.1 247.2,120.6 287.8,149.1 247.2,177.5 	"/>
</g>
<g>
	<polygon fill="none" stroke="#333333" stroke-miterlimit="10" points="3.2,120.7 165.9,6.8 328.5,120.7 165.9,234.5 	"/>
	<line fill="none" stroke="#333333" stroke-miterlimit="10" x1="125.2" y1="206.1" x2="287.8" y2="92.2"/>
	<line fill="none" stroke="#333333" stroke-miterlimit="10" x1="84.5" y1="177.6" x2="247.2" y2="63.8"/>
	<line fill="none" stroke="#333333" stroke-miterlimit="10" x1="43.9" y1="149.1" x2="206.5" y2="35.3"/>
	<line fill="none" stroke="#333333" stroke-miterlimit="10" x1="125.2" y1="35.3" x2="287.8" y2="149.1"/>
	<line fill="none" stroke="#333333" stroke-miterlimit="10" x1="84.5" y1="63.8" x2="247.2" y2="177.6"/>
	<polyline fill="none" stroke="#333333" stroke-miterlimit="10" points="43.9,92.2 84.5,120.7 206.5,206.1 	"/>
</g>
<path fill="#333333" d="M165.9,241.4c-3.1,0-6.1-0.9-8.6-2.7L6.4,132.6c-4-2.8-6.4-7.4-6.4-12.3c0-4.9,2.4-9.5,6.4-12.3L157.3,2.7
	c2.5-1.8,5.5-2.7,8.6-2.7s6.1,0.9,8.6,2.7L325.3,108c4,2.8,6.4,7.4,6.4,12.3c0,4.9-2.4,9.5-6.4,12.3l-150.9,106
	C171.9,240.4,169,241.4,165.9,241.4z M165.9,10c-1,0-2,0.3-2.9,0.9L12.1,116.2c-1.4,0.9-2.1,2.4-2.1,4.1c0,1.7,0.8,3.1,2.1,4.1
	l150.9,106c1.7,1.2,4.1,1.2,5.8,0l150.9-106c1.4-1,2.1-2.4,2.1-4.1c0-1.7-0.8-3.1-2.1-4.1L168.7,10.9C167.9,10.3,166.9,10,165.9,10z
	"/>
<polygon id="import" fill="#FFFFFF" points="128.8,88.6 120.1,88.6 120.1,94.8 120.1,139.7 137.6,139.7 137.6,109.6 207.7,158.6 
	220.1,149.9 150,100.9 193,100.9 193,88.6 "/>
</svg>
