<?xml version="1.0" encoding="utf-8"?>
<!-- Generator: Adobe Illustrator 18.1.1, SVG Export Plug-In . SVG Version: 6.00 Build 0)  -->
<svg version="1.1" id="layer_stack" xmlns="http://www.w3.org/2000/svg" xmlns:xlink="http://www.w3.org/1999/xlink" x="0px"
	 y="0px" viewBox="0 0 331.7 301.4" enable-background="new 0 0 331.7 301.4" xml:space="preserve">
<polygon display="none" fill="#FFFFFF" points="-192.8,105.2 -203.4,112.6 -214,105.2 -222.9,111.4 -212.3,118.9 -222.9,126.3 
	-214,132.6 -203.4,125.1 -192.8,132.6 -183.8,126.3 -194.4,118.9 -183.8,111.4 "/>
<g>
	<path fill="#6DAEDF" stroke="#333333" stroke-width="10" stroke-miterlimit="10" d="M160.1,66.8L9.3,172.1c-5.7,4-5.7,12.4,0,16.4
		l150.9,106c3.5,2.4,8.1,2.4,11.5,0l150.9-106c5.7-4,5.7-12.4,0-16.4L171.6,66.8C168.1,64.4,163.6,64.4,160.1,66.8z"/>
	<path fill="#4392CF" stroke="#333333" stroke-width="10" stroke-miterlimit="10" d="M160.1,36.8L9.3,142.1c-5.7,4-5.7,12.4,0,16.4
		l150.9,106c3.5,2.4,8.1,2.4,11.5,0l150.9-106c5.7-4,5.7-12.4,0-16.4L171.6,36.8C168.1,34.4,163.6,34.4,160.1,36.8z"/>
	<g>
		<path fill="#2076BB" d="M160.1,6.8L9.3,112.1c-5.7,4-5.7,12.4,0,16.4l150.9,106c3.5,2.4,8.1,2.4,11.5,0l150.9-106
			c5.7-4,5.7-12.4,0-16.4L171.6,6.8C168.1,4.4,163.6,4.4,160.1,6.8z"/>
		<path fill="#333333" d="M325.3,108L174.5,2.7c-2.5-1.8-5.5-2.7-8.6-2.7s-6.1,0.9-8.6,2.7L6.4,108c-4,2.8-6.4,7.4-6.4,12.3
			c0,4.9,2.4,9.5,6.4,12.3l150.9,106c2.5,1.8,5.5,2.7,8.6,2.7s6.1-0.9,8.6-2.7l150.9-106c4-2.8,6.4-7.4,6.4-12.3
			C331.7,115.4,329.3,110.8,325.3,108z M319.6,124.4l-150.9,106c-1.7,1.2-4.1,1.2-5.8,0l-150.9-106c-1.4-1-2.1-2.4-2.1-4.1
			c0-1.7,0.8-3.1,2.1-4.1L163,10.9c0.8-0.6,1.8-0.9,2.9-0.9c1,0,2,0.3,2.9,0.9l150.9,105.3c1.4,0.9,2.1,2.4,2.1,4.1
			C321.7,122,321,123.5,319.6,124.4z"/>
	</g>
</g>
<g>
	<polygon fill="none" stroke="#333333" stroke-width="7" stroke-miterlimit="10" points="74,138.1 98.7,73.7 190.7,56.4 
		258.1,103.6 233.5,168 141.4,185.3 	"/>
	<path fill="#FFFFFF" stroke="#333333" stroke-width="2" stroke-miterlimit="10" d="M199.9,62.8c-5.1,3.6-13.3,3.6-18.4,0
		s-5.1-9.3,0-12.9s13.3-3.6,18.4,0C205,53.5,205,59.3,199.9,62.8z"/>
	<path fill="#FFFFFF" stroke="#333333" stroke-width="2" stroke-miterlimit="10" d="M266.9,109.7c-5.1,3.6-13.3,3.6-18.4,0
		s-5.1-9.3,0-12.9s13.3-3.6,18.4,0S272,106.2,266.9,109.7z"/>
	<path fill="#FFFFFF" stroke="#333333" stroke-width="2" stroke-miterlimit="10" d="M242.6,174.4c-5.1,3.6-13.3,3.6-18.4,0
		s-5.1-9.3,0-12.9s13.3-3.6,18.4,0S247.7,170.9,242.6,174.4z"/>
	<path fill="#FFFFFF" stroke="#333333" stroke-width="2" stroke-miterlimit="10" d="M150.2,191.4c-5.1,3.6-13.3,3.6-18.4,0
		s-5.1-9.3,0-12.9s13.3-3.6,18.4,0S155.3,187.8,150.2,191.4z"/>
	<path fill="#FFFFFF" stroke="#333333" stroke-width="2" stroke-miterlimit="10" d="M83.2,144.5c-5.1,3.6-13.3,3.6-18.4,0
		s-5.1-9.3,0-12.9s13.3-3.6,18.4,0S88.3,141,83.2,144.5z"/>
	<path fill="#FFFFFF" stroke="#333333" stroke-width="2" stroke-miterlimit="10" d="M107.9,80.1c-5.1,3.6-13.3,3.6-18.4,0
		s-5.1-9.3,0-12.9c5.1-3.6,13.3-3.6,18.4,0C113,70.8,113,76.6,107.9,80.1z"/>
</g>
<polygon fill="#FFFFFF" points="126.5,85.9 117.7,85.9 117.7,92 117.7,137 135.2,137 135.2,106.9 205.3,155.9 217.7,147.2 
	147.6,98.2 190.6,98.2 190.6,85.9 "/>
</svg>
