<?xml version="1.0" encoding="utf-8"?>
<!-- Generator: Adobe Illustrator 18.1.1, SVG Export Plug-In . SVG Version: 6.00 Build 0)  -->
<svg version="1.1" id="layer_stack" xmlns="http://www.w3.org/2000/svg" xmlns:xlink="http://www.w3.org/1999/xlink" x="0px"
	 y="0px" viewBox="0 0 331.7 301.4" enable-background="new 0 0 331.7 301.4" xml:space="preserve">
<g>
	<path fill="#EFEFAC" stroke="#333333" stroke-width="10" stroke-miterlimit="10" d="M160.1,66.8L9.3,172.1c-5.7,4-5.7,12.4,0,16.4
		l150.9,106c3.5,2.4,8.1,2.4,11.5,0l150.9-106c5.7-4,5.7-12.4,0-16.4L171.6,66.8C168.1,64.4,163.6,64.4,160.1,66.8z"/>
	<path fill="#E6E67C" stroke="#333333" stroke-width="10" stroke-miterlimit="10" d="M160.1,36.8L9.3,142.1c-5.7,4-5.7,12.4,0,16.4
		l150.9,106c3.5,2.4,8.1,2.4,11.5,0l150.9-106c5.7-4,5.7-12.4,0-16.4L171.6,36.8C168.1,34.4,163.6,34.4,160.1,36.8z"/>
	<g>
		<path fill="#DDDD47" d="M160.1,6.8L9.3,112.1c-5.7,4-5.7,12.4,0,16.4l150.9,106c3.5,2.4,8.1,2.4,11.5,0l150.9-106
			c5.7-4,5.7-12.4,0-16.4L171.6,6.8C168.1,4.4,163.6,4.4,160.1,6.8z"/>
		<path fill="#333333" d="M165.9,241.4c-3.1,0-6.1-0.9-8.6-2.7L6.4,132.6c-4-2.8-6.4-7.4-6.4-12.3c0-4.9,2.4-9.5,6.4-12.3L157.3,2.7
			c2.5-1.8,5.5-2.7,8.6-2.7s6.1,0.9,8.6,2.7L325.3,108c4,2.8,6.4,7.4,6.4,12.3c0,4.9-2.4,9.5-6.4,12.3l-150.9,106
			C171.9,240.4,169,241.4,165.9,241.4z M165.9,10c-1,0-2,0.3-2.9,0.9L12.1,116.2c-1.4,0.9-2.1,2.4-2.1,4.1c0,1.7,0.8,3.1,2.1,4.1
			l150.9,106c1.7,1.2,4.1,1.2,5.8,0l150.9-106c1.4-1,2.1-2.4,2.1-4.1c0-1.7-0.8-3.1-2.1-4.1L168.7,10.9
			C167.9,10.3,166.9,10,165.9,10z"/>
	</g>
</g>
<polygon fill="#FFFFFF" points="215.3,125.3 214.2,116.2 180.2,116.2 202.2,99.1 192.4,92.7 170.4,109.7 167.5,85.6 154.7,85.5 
	157.6,109.7 131.5,92.6 123.2,99 149.4,116.1 115.3,116.1 116.4,125.2 150.5,125.2 128.5,142.3 138.2,148.7 160.3,131.6 
	163.2,155.8 175.9,155.8 173,131.6 199.2,148.8 207.4,142.4 181.3,125.2 "/>
<g>
	<polygon fill="none" stroke="#333333" stroke-width="7" stroke-miterlimit="10" points="73.3,138.1 98,73.7 190,56.4 257.4,103.6 
		232.7,168 140.7,185.3 	"/>
	<path fill="#FFFFFF" stroke="#333333" stroke-width="5" stroke-miterlimit="10" d="M199.2,62.8c-5.1,3.6-13.3,3.6-18.4,0
		c-5.1-3.6-5.1-9.3,0-12.9c5.1-3.6,13.3-3.6,18.4,0C204.3,53.5,204.3,59.3,199.2,62.8z"/>
	<path fill="#FFFFFF" stroke="#333333" stroke-width="5" stroke-miterlimit="10" d="M266.1,109.7c-5.1,3.6-13.3,3.6-18.4,0
		c-5.1-3.6-5.1-9.3,0-12.9c5.1-3.6,13.3-3.6,18.4,0C271.2,100.4,271.2,106.2,266.1,109.7z"/>
	<path fill="#FFFFFF" stroke="#333333" stroke-width="5" stroke-miterlimit="10" d="M241.9,174.4c-5.1,3.6-13.3,3.6-18.4,0
		c-5.1-3.6-5.1-9.3,0-12.9c5.1-3.6,13.3-3.6,18.4,0C247,165.1,247,170.9,241.9,174.4z"/>
	<path fill="#FFFFFF" stroke="#333333" stroke-width="5" stroke-miterlimit="10" d="M149.4,191.4c-5.1,3.6-13.3,3.6-18.4,0
		c-5.1-3.6-5.1-9.3,0-12.9c5.1-3.6,13.3-3.6,18.4,0C154.5,182.1,154.5,187.8,149.4,191.4z"/>
	<path fill="#FFFFFF" stroke="#333333" stroke-width="5" stroke-miterlimit="10" d="M82.5,144.5c-5.1,3.6-13.3,3.6-18.4,0
		c-5.1-3.6-5.1-9.3,0-12.9c5.1-3.6,13.3-3.6,18.4,0C87.6,135.2,87.6,141,82.5,144.5z"/>
	<path fill="#FFFFFF" stroke="#333333" stroke-width="5" stroke-miterlimit="10" d="M107.2,80.1c-5.1,3.6-13.3,3.6-18.4,0
		c-5.1-3.6-5.1-9.3,0-12.9c5.1-3.6,13.3-3.6,18.4,0C112.2,70.8,112.2,76.6,107.2,80.1z"/>
</g>
</svg>
