<?xml version="1.0" encoding="utf-8"?>
<!-- Generator: Adobe Illustrator 19.2.1, SVG Export Plug-In . SVG Version: 6.00 Build 0)  -->
<svg version="1.1" id="layer_stack" xmlns="http://www.w3.org/2000/svg" xmlns:xlink="http://www.w3.org/1999/xlink" x="0px"
	 y="0px" viewBox="0 0 331.7 301.4" style="enable-background:new 0 0 331.7 301.4;" xml:space="preserve">
<style type="text/css">
	.st0{fill:#175689;stroke:#333333;stroke-width:10;stroke-miterlimit:10;}
	.st1{fill:#124167;stroke:#333333;stroke-width:10;stroke-miterlimit:10;}
	.st2{fill:#0F3757;}
	.st3{fill:#333333;}
	.st4{display:none;fill:#FFFFFF;}
	.st5{fill:#FFFFFF;}
</style>
<g>
	<path class="st0" d="M160.1,66.8L9.3,172.1c-5.7,4-5.7,12.4,0,16.4l150.9,106c3.5,2.4,8.1,2.4,11.5,0l150.9-106
		c5.7-4,5.7-12.4,0-16.4l-151-105.3C168.1,64.4,163.6,64.4,160.1,66.8z"/>
	<path class="st1" d="M160.1,36.8L9.3,142.1c-5.7,4-5.7,12.4,0,16.4l150.9,106c3.5,2.4,8.1,2.4,11.5,0l150.9-106
		c5.7-4,5.7-12.4,0-16.4l-151-105.3C168.1,34.4,163.6,34.4,160.1,36.8z"/>
	<g>
		<path class="st2" d="M160.1,6.8L9.3,112.1c-5.7,4-5.7,12.4,0,16.4l150.9,106c3.5,2.4,8.1,2.4,11.5,0l150.9-106
			c5.7-4,5.7-12.4,0-16.4L171.6,6.8C168.1,4.4,163.6,4.4,160.1,6.8z"/>
		<path class="st3" d="M325.3,108L174.5,2.7C172,0.9,169,0,165.9,0s-6.1,0.9-8.6,2.7L6.4,108c-4,2.8-6.4,7.4-6.4,12.3
			s2.4,9.5,6.4,12.3l150.9,106c2.5,1.8,5.5,2.7,8.6,2.7s6.1-0.9,8.6-2.7l150.9-106c4-2.8,6.4-7.4,6.4-12.3
			C331.7,115.4,329.3,110.8,325.3,108z M319.6,124.4l-150.9,106c-1.7,1.2-4.1,1.2-5.8,0L12,124.4c-1.4-1-2.1-2.4-2.1-4.1
			s0.8-3.1,2.1-4.1L163,10.9c0.8-0.6,1.8-0.9,2.9-0.9c1,0,2,0.3,2.9,0.9l150.9,105.3c1.4,0.9,2.1,2.4,2.1,4.1
			C321.7,122,321,123.5,319.6,124.4z"/>
	</g>
</g>
<polygon class="st4" points="126.5,85.9 117.7,85.9 117.7,92 117.7,137 135.2,137 135.2,106.9 205.3,155.9 217.7,147.2 147.6,98.2 
	190.6,98.2 190.6,85.9 "/>
<polygon class="st4" points="126.6,159.1 220.7,93.2 205.1,82.3 111,148.2 "/>
<polygon id="import" class="st5" points="207.4,155.7 216.1,155.7 216.1,149.4 216.1,104.6 198.6,104.6 198.6,134.7 128.5,85.7 
	116.1,94.4 186.2,143.4 143.2,143.4 143.2,155.7 "/>
</svg>
